HIERARCHY
ROOT joint_Root
{
	OFFSET 0.0 0.0 0.0
	CHANNELS 6 Xposition Yposition Zposition Zrotation Xrotation Yrotation 
	JOINT Hips
	{
		OFFSET -0.726466 93.3139 -2.00062
		CHANNELS 6 Xposition Yposition Zposition Zrotation Xrotation Yrotation 
		JOINT Spine
		{
			OFFSET 15.7357 0.0 0.0
			CHANNELS 6 Xposition Yposition Zposition Zrotation Xrotation Yrotation 
			JOINT Chest
			{
				OFFSET 8.98455 -0.406207 0.0
				CHANNELS 6 Xposition Yposition Zposition Zrotation Xrotation Yrotation 
				JOINT Neck
				{
					OFFSET 16.3773 0.0 0.0
					CHANNELS 6 Xposition Yposition Zposition Zrotation Xrotation Yrotation 
					JOINT Head
					{
						OFFSET 6.45672 0.0 0.0
						CHANNELS 6 Xposition Yposition Zposition Zrotation Xrotation Yrotation 
						End Site
						{
							OFFSET 0.0 0.0 0.0
						}
					}
				}
				JOINT Shoulder_L
				{
					OFFSET 12.9942 -0.242716 4.98039
					CHANNELS 6 Xposition Yposition Zposition Zrotation Xrotation Yrotation 
					JOINT UpperArm_L
					{
						OFFSET 5.34809 0.0 0.0
						CHANNELS 6 Xposition Yposition Zposition Zrotation Xrotation Yrotation 
						JOINT LowerArm_L
						{
							OFFSET 24.3286 1.87007e-05 0.0
							CHANNELS 6 Xposition Yposition Zposition Zrotation Xrotation Yrotation 
							JOINT Hand_L
							{
								OFFSET 22.2916 0.0 0.0
								CHANNELS 6 Xposition Yposition Zposition Zrotation Xrotation Yrotation 
								End Site
								{
									OFFSET 0.0 0.0 0.0
								}
							}
						}
					}
				}
				JOINT Shoulder_R
				{
					OFFSET 12.9945 -0.242716 -4.98039
					CHANNELS 6 Xposition Yposition Zposition Zrotation Xrotation Yrotation 
					JOINT UpperArm_R
					{
						OFFSET -5.34813 0.0 0.0
						CHANNELS 6 Xposition Yposition Zposition Zrotation Xrotation Yrotation 
						JOINT LowerArm_R
						{
							OFFSET -24.3289 0.000322201 0.0
							CHANNELS 6 Xposition Yposition Zposition Zrotation Xrotation Yrotation 
							JOINT Hand_R
							{
								OFFSET -22.2915 -0.000108084 0.0
								CHANNELS 6 Xposition Yposition Zposition Zrotation Xrotation Yrotation 
								End Site
								{
									OFFSET 0.0 0.0 0.0
								}
							}
						}
					}
				}
			}
		}
		JOINT UpperLeg_L
		{
			OFFSET -2.19248 -6.46944 0.0
			CHANNELS 6 Xposition Yposition Zposition Zrotation Xrotation Yrotation 
			JOINT LowerLeg_L
			{
				OFFSET 39.0811 0.0 -1.23785e-05
				CHANNELS 6 Xposition Yposition Zposition Zrotation Xrotation Yrotation 
				JOINT Foot_L
				{
					OFFSET 40.9854 0.0 -1.26872e-05
					CHANNELS 6 Xposition Yposition Zposition Zrotation Xrotation Yrotation 
					JOINT Toes_L
					{
						OFFSET 11.7543 0.0 0.0
						CHANNELS 6 Xposition Yposition Zposition Zrotation Xrotation Yrotation 
						End Site
						{
							OFFSET 0.0 0.0 0.0
						}
					}
				}
			}
		}
		JOINT UpperLeg_R
		{
			OFFSET -2.19251 6.46944 0.0
			CHANNELS 6 Xposition Yposition Zposition Zrotation Xrotation Yrotation 
			JOINT LowerLeg_R
			{
				OFFSET -39.0811 -0.00228153 -0.0401928
				CHANNELS 6 Xposition Yposition Zposition Zrotation Xrotation Yrotation 
				JOINT Foot_R
				{
					OFFSET -40.9854 0.0 0.0
					CHANNELS 6 Xposition Yposition Zposition Zrotation Xrotation Yrotation 
					JOINT Toes_R
					{
						OFFSET -11.7543 0.0 0.0
						CHANNELS 6 Xposition Yposition Zposition Zrotation Xrotation Yrotation 
						End Site
						{
							OFFSET 0.0 0.0 0.0
						}
					}
				}
			}
		}
	}
}
MOTION
Frames:	4
Frame Time:	0.0333333
0.000000 0.000000 0.000000 0.000000 0.000000 -0.000000 121.154000 87.639400 173.415000 -85.675400 35.506300 -178.130000 15.735700 0.000005 -0.000001 100.239000 82.352000 -101.104000 8.984550 -0.406207 -0.000000 7.313610 2.712380 -1.902190 16.377300 -0.000001 -0.000001 6.700020 5.844420 -2.832620 6.456720 -0.000001 -0.000000 1.593620 7.558000 -5.385670 12.994200 -0.242716 4.980390 -89.171600 -1.825770 -65.589200 5.348090 -0.000007 -0.000001 -67.976100 28.467500 -5.460540 24.328600 0.000019 0.000005 5.435530 8.005520 -34.342700 22.291600 -0.000001 0.000005 4.992800 5.509890 -6.936970 12.994500 -0.242716 -4.980390 89.456700 1.542940 -70.598600 -5.348130 -0.000001 -0.000004 -61.999900 36.341300 -12.408800 -24.328900 0.000322 -0.000009 6.950380 9.255350 -37.164800 -22.291500 -0.000108 -0.000004 2.640900 5.562290 -9.300190 -2.192480 -6.469440 -0.000000 177.507000 -17.444400 -20.980700 39.081100 -0.000007 -0.000012 -0.406706 0.401647 45.359500 40.985400 -0.000006 -0.000013 3.564770 -12.759900 -72.515800 11.754300 -0.000000 0.000003 -0.000012 -0.000160 -16.583800 -2.192510 6.469440 -0.000001 171.449000 13.498900 176.794000 -39.081100 -0.002282 -0.040193 0.279254 -0.127143 65.273700 -40.985400 0.000008 0.000006 -1.485010 -3.724570 -44.007800 -11.754300 -0.000006 -0.000006 -0.024973 -0.193421 -24.486300
0.000000 0.000000 0.000000 0.000000 0.000000 -0.000000 122.693000 88.273900 171.066000 -85.190600 32.475600 -177.846000 15.735700 0.000005 -0.000001 95.752900 82.426600 -96.244500 8.984550 -0.406207 -0.000000 7.313050 1.514620 -1.079020 16.377300 -0.000001 -0.000001 6.964430 5.390920 -2.839710 6.456720 -0.000001 -0.000000 1.571690 7.827940 -4.921180 12.994200 -0.242716 4.980390 -89.073800 -2.112070 -66.313000 5.348090 -0.000007 -0.000001 -66.222400 30.961000 -8.962700 24.328600 0.000019 0.000005 5.821860 7.728330 -37.168500 22.291600 -0.000001 0.000005 5.351630 5.517360 -7.249340 12.994500 -0.242716 -4.980390 89.493400 1.386850 -69.930300 -5.348130 -0.000001 -0.000004 -64.132600 35.278900 -8.155760 -24.328900 0.000322 -0.000009 6.681930 9.575960 -35.159300 -22.291500 -0.000108 -0.000004 1.951830 5.559110 -9.143040 -2.192480 -6.469440 -0.000000 178.675000 -15.479100 -17.226600 39.081100 -0.000007 -0.000012 -0.394951 0.418275 43.358000 40.985400 -0.000006 -0.000013 3.213980 -11.624800 -73.489700 11.754300 -0.000000 0.000003 -0.000019 -0.000241 -16.587000 -2.192510 6.469440 -0.000001 172.416000 12.582100 174.022000 -39.081100 -0.002282 -0.040193 0.250623 -0.108507 66.324300 -40.985400 0.000008 0.000006 -2.428970 -3.666320 -45.736500 -11.754300 -0.000006 -0.000006 -0.023471 -0.185806 -24.171600
0.000000 0.000000 0.000000 0.000000 0.000000 -0.000000 124.137000 89.002600 168.879000 -84.796100 29.360200 -177.508000 15.735700 0.000005 -0.000001 91.079100 82.398200 -91.168100 8.984550 -0.406207 -0.000000 7.435100 0.285501 -0.196288 16.377300 -0.000001 -0.000001 7.175280 4.758680 -2.870120 6.456720 -0.000001 -0.000000 1.608440 8.130890 -4.386120 12.994200 -0.242716 4.980390 -88.970800 -2.454970 -67.244900 5.348090 -0.000007 -0.000001 -64.126500 32.905300 -12.413900 24.328600 0.000019 0.000005 6.556120 7.718130 -40.555300 22.291600 -0.000001 0.000005 5.666220 5.529020 -7.751300 12.994500 -0.242716 -4.980390 89.606000 1.030320 -69.068200 -5.348130 -0.000001 -0.000004 -65.673700 33.485100 -4.753700 -24.328900 0.000322 -0.000009 6.552330 10.117000 -33.184600 -22.291500 -0.000108 -0.000004 1.236690 5.552790 -8.837880 -2.192480 -6.469440 -0.000000 179.709000 -13.040200 -13.355400 39.081100 -0.000007 -0.000012 -0.358483 0.419106 40.542800 40.985400 -0.000006 -0.000013 2.868400 -10.724100 -73.834800 11.754300 -0.000000 0.000003 -0.000026 -0.000322 -16.590100 -2.192510 6.469440 -0.000001 173.424000 11.927700 171.562000 -39.081100 -0.002282 -0.040193 0.201964 -0.091990 65.169000 -40.985400 0.000008 0.000006 -1.290910 -4.259150 -48.457900 -11.754300 -0.000006 -0.000006 -0.023311 -0.184981 -24.137500
0.000000 0.000000 0.000000 0.000000 0.000000 -0.000000 125.497000 89.693000 166.828000 -84.435200 26.500200 -177.334000 15.735700 0.000005 -0.000001 86.806100 82.311500 -86.520800 8.984550 -0.406207 -0.000000 7.589930 -0.853821 0.626593 16.377300 -0.000001 -0.000001 7.249510 4.205940 -2.766060 6.456720 -0.000001 -0.000000 1.491950 8.359180 -3.906880 12.994200 -0.242716 4.980390 -88.846000 -2.866780 -68.060400 5.348090 -0.000007 -0.000001 -61.604000 34.293000 -15.883500 24.328600 0.000019 0.000005 6.637890 6.889110 -44.135600 22.291600 -0.000001 0.000005 6.176660 5.539920 -8.238100 12.994500 -0.242716 -4.980390 89.700300 0.751412 -68.255700 -5.348130 -0.000001 -0.000004 -66.363500 31.652900 -2.016600 -24.328900 0.000322 -0.000009 6.616430 10.741700 -31.900500 -22.291500 -0.000108 -0.000004 0.788678 5.546960 -8.563330 -2.192480 -6.469440 -0.000000 -179.309000 -10.934700 -9.747290 39.081100 -0.000007 -0.000012 -0.351185 0.458889 37.427400 40.985400 -0.000006 -0.000013 2.588320 -9.741210 -73.887800 11.754300 -0.000000 0.000003 -0.000023 -0.000285 -16.588700 -2.192510 6.469440 -0.000001 174.310000 10.838400 169.260000 -39.081100 -0.002282 -0.040193 0.154370 -0.080945 61.834800 -40.985400 0.000008 0.000006 -0.664787 -5.068510 -51.346300 -11.754300 -0.000006 -0.000006 -0.023634 -0.186644 -24.206200
